HIERARCHY
ROOT Hips
{
	OFFSET 0.000000 0.000000 0.000000
	CHANNELS 6 Xposition Yposition Zposition Zrotation Xrotation Yrotation
	JOINT RightUpLeg
	{
		OFFSET -9.711200 0.000000 0.000000
		CHANNELS 3 Zrotation Xrotation Yrotation
		JOINT RightLeg
		{
			OFFSET 0.000000 -42.071800 0.000000
			CHANNELS 3 Zrotation Xrotation Yrotation
			JOINT RightFoot
			{
				OFFSET 0.000000 -40.121000 0.000000
				CHANNELS 3 Zrotation Xrotation Yrotation
				JOINT RightToe
				{
					OFFSET 0.000000 -9.631400 3.100600
					CHANNELS 3 Zrotation Xrotation Yrotation
					JOINT RightToeEnd
					{
						OFFSET 0.000000 -4.048200 4.118000
						CHANNELS 3 Zrotation Xrotation Yrotation
						End Site
						{
						    OFFSET 0.000000 -3.505200 3.565600
						}
					}
				}
			}
		}
	}
	JOINT LeftUpLeg
	{
		OFFSET 9.711200 0.000000 0.000000
		CHANNELS 3 Zrotation Xrotation Yrotation
		JOINT LeftLeg
		{
			OFFSET 0.000000 -42.071800 0.000000
			CHANNELS 3 Zrotation Xrotation Yrotation
			JOINT LeftFoot
			{
				OFFSET 0.000000 -40.121000 0.000000
				CHANNELS 3 Zrotation Xrotation Yrotation
				JOINT LeftToe
				{
					OFFSET 0.000000 -9.631400 3.100600
					CHANNELS 3 Zrotation Xrotation Yrotation
					JOINT LeftToeEnd
					{
						OFFSET 0.000000 -4.048200 4.118000
						CHANNELS 3 Zrotation Xrotation Yrotation
						End Site
						{
						    OFFSET 0.000000 -3.505200 3.565600
						}
					}
				}
			}
		}
	}
	JOINT Spine
	{
		OFFSET 0.000000 14.595200 0.000000
		CHANNELS 3 Zrotation Xrotation Yrotation
		JOINT Spine1
		{
			OFFSET 0.000000 9.770300 0.000000
			CHANNELS 3 Zrotation Xrotation Yrotation
			JOINT Spine2
			{
				OFFSET 0.000000 14.330100 0.000000
				CHANNELS 3 Zrotation Xrotation Yrotation
				JOINT LeftShoulder
				{
					OFFSET 2.000000 14.330100 0.000000
					CHANNELS 3 Zrotation Xrotation Yrotation
					JOINT LeftArm
					{
						OFFSET 14.369100 0.000000 0.000000
						CHANNELS 3 Zrotation Xrotation Yrotation
						JOINT LeftForeArm
						{
							OFFSET 0.000000 -27.196400 0.000000
							CHANNELS 3 Zrotation Xrotation Yrotation
							JOINT LeftHand
							{
								OFFSET 0.000000 -24.849000 0.000000
								CHANNELS 3 Zrotation Xrotation Yrotation
								JOINT LeftFinger0
								{
									OFFSET 0.000000 -7.367300 0.000000
									CHANNELS 3 Zrotation Xrotation Yrotation
									End Site
									{
									    OFFSET 0.000000 -5.000000 0.000000
									}
								}
							}
						}
					}
				}
				JOINT RightShoulder
				{
					OFFSET -2.000000 14.330100 0.000000
					CHANNELS 3 Zrotation Xrotation Yrotation
					JOINT RightArm
					{
						OFFSET -14.369100 0.000000 0.000000
						CHANNELS 3 Zrotation Xrotation Yrotation
						JOINT RightForeArm
						{
							OFFSET 0.000000 -27.196400 0.000000
							CHANNELS 3 Zrotation Xrotation Yrotation
							JOINT RightHand
							{
								OFFSET 0.000000 -24.849000 0.000000
								CHANNELS 3 Zrotation Xrotation Yrotation
								JOINT RightFinger0
								{
									OFFSET 0.000000 -7.367300 0.000000
									CHANNELS 3 Zrotation Xrotation Yrotation
									End Site
									{
									    OFFSET 0.000000 -5.000000 0.000000
									}
								}
							}
						}
					}
				}
				JOINT Neck
				{
					OFFSET 0.000000 14.330100 0.000000
					CHANNELS 3 Zrotation Xrotation Yrotation
					JOINT Head
					{
						OFFSET 0.000000 8.944300 0.000000
						CHANNELS 3 Zrotation Xrotation Yrotation
						JOINT HeadTip
						{
							OFFSET 0.000000 10.000000 0.000000
							CHANNELS 3 Zrotation Xrotation Yrotation
							End Site
							{
							    OFFSET 0.000000 5.000000 0.000000
							}
						}
					}
				}
			}
		}
	}
}
MOTION
Frames:	7
Frame Time:	0.033332
-210.449800 88.679800 -43.834300 -1.243876 -3.139505 3.390949 0.579768 -4.583969 -14.037552 -0.000000 10.430323 -0.000000 -6.127283 -45.077106 -28.458366 -0.000000 2.069766 -0.000000 -0.000000 0.000000 -0.000000 4.167327 -3.152254 7.323640 0.000000 10.557588 0.000000 -10.901898 -50.686056 -16.208207 0.000000 0.232869 -0.000000 0.000000 0.000000 -0.000000 2.431714 3.013564 -1.507030 0.000000 5.299910 -0.000000 -0.000000 0.000000 -0.000000 -10.483088 -0.000000 6.568599 60.480961 -13.048172 26.848918 0.000000 -22.954198 -0.000000 5.289281 8.720350 -34.650043 0.000000 0.000000 -0.000000 6.764924 0.000000 -3.099060 -64.363862 -9.671763 -0.077148 -0.000052 -18.722276 -0.000008 3.590926 11.976714 15.542176 -0.000000 -0.000000 0.000000 -0.000000 0.000000 -0.000000 -1.181349 14.537344 -3.809625 -0.000000 -0.000000 -0.000000 
-210.630700 88.677400 -43.806100 -1.242018 -3.100465 3.495083 0.706657 -4.558078 -14.070186 -0.000000 10.346121 -0.000000 -6.267833 -45.079104 -28.521186 -0.000000 1.966351 -0.000000 -0.000000 -0.000000 -0.000000 4.293151 -3.315310 7.267527 -0.000000 10.787656 -0.000000 -10.979464 -50.699606 -16.241327 -0.000000 0.196069 -0.000000 0.000000 0.000000 -0.000000 2.631876 2.864513 -1.567399 0.000000 5.163158 -0.000000 -0.000000 0.000000 -0.000000 -9.824111 -0.000000 6.382559 63.663576 -13.342641 30.151555 -0.000000 -21.905888 -0.000000 5.210637 8.740297 -34.786913 -0.000000 0.000000 -0.000000 5.603683 -0.000000 -3.212057 -67.734118 -9.582509 -2.624251 -0.000049 -17.754555 -0.000008 3.280912 11.821317 15.118483 -0.000000 0.000000 -0.000000 -0.000000 0.000000 -0.000000 -1.370803 14.642945 -3.856232 -0.000000 0.000000 -0.000000 
-210.823900 88.677500 -43.783800 -1.220067 -3.078765 3.623859 0.836174 -4.493980 -14.050640 0.000000 10.212583 -0.000000 -6.517602 -45.095943 -28.738957 -0.000000 1.955237 -0.000000 0.000000 0.000000 -0.000000 4.405833 -3.466119 7.231974 -0.000000 11.004375 0.000000 -11.030389 -50.696318 -16.330782 0.000000 0.280238 0.000000 0.000000 0.000000 0.000000 2.819612 2.758505 -1.587448 -0.000000 5.014497 -0.000000 -0.000000 0.000000 -0.000000 -9.105945 -0.000000 6.169755 66.541595 -13.548387 33.058919 -0.000000 -20.989031 -0.000000 5.147828 8.631353 -34.648076 -0.000000 0.000000 0.000000 4.386577 -0.000000 -3.334366 -70.879216 -9.373031 -4.817591 -0.000047 -17.029287 -0.000007 3.051033 11.736555 14.799712 0.000000 0.000000 -0.000000 -0.000000 0.000000 -0.000000 -1.549049 14.748346 -3.904663 -0.000000 0.000000 -0.000000 
-211.046400 88.679900 -43.768600 -1.216749 -3.021944 3.793458 0.999650 -4.437042 -14.087611 -0.000000 10.017876 -0.000000 -6.712336 -45.079287 -28.896636 -0.000000 1.918486 -0.000000 -0.000000 -0.000000 -0.000000 4.564079 -3.692190 7.211695 0.000000 11.273229 -0.000000 -11.228047 -50.657192 -16.502983 0.000000 0.249805 0.000000 -0.000000 0.000000 0.000000 3.015056 2.620542 -1.610001 -0.000000 4.856034 -0.000000 0.000000 0.000000 -0.000000 -8.394976 0.000000 5.875144 69.206159 -13.605769 35.700257 0.000000 -20.138721 -0.000000 5.053583 8.596663 -34.740684 -0.000000 0.000000 -0.000000 3.156841 0.000000 -3.440599 -73.730614 -9.068964 -6.604984 -0.000045 -16.510000 -0.000007 3.040968 11.526669 14.455783 -0.000000 -0.000000 0.000000 0.000000 0.000000 -0.000000 -1.690532 14.902520 -3.969476 0.000000 0.000000 0.000000 
-211.287600 88.680400 -43.764300 -1.203432 -2.982513 4.015584 1.175947 -4.345982 -14.147102 -0.000000 9.778645 -0.000000 -7.002515 -45.053838 -29.114209 -0.000000 1.895176 -0.000000 0.000000 0.000000 -0.000000 4.721063 -3.932783 7.090123 0.000000 11.559766 -0.000000 -11.401239 -50.598420 -16.634708 0.000000 0.260840 -0.000000 -0.000000 -0.000000 0.000000 3.179726 2.521046 -1.687571 -0.000000 4.725966 -0.000000 0.000000 0.000000 -0.000000 -7.602672 -0.000000 5.624407 71.548645 -13.656831 37.992908 -0.000000 -19.251879 -0.000000 5.076492 8.574398 -34.890067 0.000000 -0.000000 0.000000 1.925009 -0.000000 -3.636435 -76.218014 -8.931848 -8.683295 -0.000043 -15.920814 -0.000006 2.926222 11.333970 14.361845 0.000000 0.000000 -0.000000 0.000000 0.000000 -0.000000 -1.757063 14.998041 -4.125329 -0.000000 -0.000000 -0.000000 
-211.542600 88.676100 -43.760400 -1.201352 -2.968960 4.203233 1.384142 -4.212721 -14.128158 -0.000000 9.488057 0.000000 -7.306298 -44.982401 -29.356719 -0.000000 1.786492 -0.000000 -0.000000 0.000000 -0.000000 4.895439 -4.164586 7.035176 -0.000000 11.898429 -0.000000 -11.511434 -50.600179 -16.774959 0.000000 0.289441 0.000000 0.000000 -0.000000 -0.000000 3.346895 2.464665 -1.765283 -0.000000 4.607197 -0.000000 0.000000 0.000000 -0.000000 -6.786938 -0.000000 5.369520 73.606652 -13.604773 40.010770 -0.000000 -18.375953 0.000000 5.079347 8.651489 -35.087242 -0.000000 0.000000 0.000000 0.694700 0.000000 -3.777536 -78.390960 -8.829468 -10.596007 -0.000042 -15.367471 -0.000006 2.707959 11.251326 14.347396 -0.000000 0.000000 0.000000 0.000000 0.000000 -0.000000 -1.862330 14.965451 -4.167039 0.000000 0.000000 0.000000 
-211.822000 88.676100 -43.770100 -1.226843 -2.937822 4.411305 1.638349 -4.080267 -14.085231 0.000000 9.145921 -0.000000 -7.607001 -44.885460 -29.631225 -0.000000 1.747843 -0.000000 -0.000000 0.000000 -0.000000 5.113725 -4.479234 6.949567 0.000000 12.323050 0.000000 -11.556818 -50.593242 -16.891842 0.000000 0.269729 -0.000000 0.000000 0.000000 -0.000000 3.530289 2.428284 -1.853019 -0.000000 4.458362 -0.000000 0.000000 0.000000 -0.000000 -5.948649 -0.000000 5.110088 75.414044 -13.516605 41.878293 -0.000000 -17.480826 -0.000000 4.800068 8.889487 -35.357591 0.000000 0.000000 -0.000000 -0.465659 -0.000000 -3.865570 -80.344390 -8.685384 -12.243583 -0.000040 -14.905843 -0.000005 2.650221 11.293529 14.232300 -0.000000 -0.000000 -0.000000 0.000000 0.000000 -0.000000 -1.894892 14.949541 -4.266232 0.000000 0.000000 -0.000000 
